<?xml version="1.0" encoding="UTF-8" standalone="no"?><!-- Generator: Gravit.io --><svg xmlns="http://www.w3.org/2000/svg" xmlns:xlink="http://www.w3.org/1999/xlink" style="isolation:isolate" viewBox="0 0 750 370" width="750pt" height="370pt"><defs><clipPath id="_clipPath_kUxs6MrqvGXeRee3ZJphnOauotVYNHan"><rect width="750" height="370"/></clipPath></defs><g clip-path="url(#_clipPath_kUxs6MrqvGXeRee3ZJphnOauotVYNHan)"><text transform="matrix(1,0,0,1,622.867,73.949)" style="font-family:'Arial';font-weight:400;font-size:20px;font-style:normal;fill:#000000;stroke:none;">256GB</text><text transform="matrix(1,0,0,1,636.549,118.637)" style="font-family:'Arial';font-weight:400;font-size:20px;font-style:normal;fill:#000000;stroke:none;">5.5"</text><text transform="matrix(1,0,0,1,627.877,163.324)" style="font-family:'Arial';font-weight:400;font-size:20px;font-style:normal;fill:#000000;stroke:none;">16MP</text><text transform="matrix(1,0,0,1,604.513,208.012)" style="font-family:'Arial';font-weight:400;font-size:20px;font-style:normal;fill:#000000;stroke:none;">1280 x 720</text><text transform="matrix(1,0,0,1,626.192,252.699)" style="font-family:'Arial';font-weight:400;font-size:20px;font-style:normal;fill:#000000;stroke:none;">$1449</text><text transform="matrix(1,0,0,1,615.646,300.658)" style="font-family:'Arial';font-weight:400;font-size:20px;font-style:normal;fill:#000000;stroke:none;">This one</text><text transform="matrix(1,0,0,1,436.867,73.949)" style="font-family:'Arial';font-weight:400;font-size:20px;font-style:normal;fill:#000000;stroke:none;">128GB</text><text transform="matrix(1,0,0,1,450.549,118.637)" style="font-family:'Arial';font-weight:400;font-size:20px;font-style:normal;fill:#000000;stroke:none;">5.5"</text><text transform="matrix(1,0,0,1,441.877,163.324)" style="font-family:'Arial';font-weight:400;font-size:20px;font-style:normal;fill:#000000;stroke:none;">48MP</text><text transform="matrix(1,0,0,1,412.951,208.012)" style="font-family:'Arial';font-weight:400;font-size:20px;font-style:normal;fill:#000000;stroke:none;">2280 x 1080</text><text transform="matrix(1,0,0,1,445.754,252.699)" style="font-family:'Arial';font-weight:400;font-size:20px;font-style:normal;fill:#000000;stroke:none;">$499</text><text transform="matrix(1,0,0,1,429.646,300.658)" style="font-family:'Arial';font-weight:400;font-size:20px;font-style:normal;fill:#000000;stroke:none;">This one</text><text transform="matrix(1,0,0,1,57.655,73.949)" style="font-family:'Arial';font-weight:700;font-size:20px;font-style:normal;fill:#000000;stroke:none;">Memory</text><text transform="matrix(1,0,0,1,39.857,118.637)" style="font-family:'Arial';font-weight:700;font-size:20px;font-style:normal;fill:#000000;stroke:none;">Screen Size</text><text transform="matrix(1,0,0,1,59.311,163.324)" style="font-family:'Arial';font-weight:700;font-size:20px;font-style:normal;fill:#000000;stroke:none;">Camera</text><text transform="matrix(1,0,0,1,44.335,208.012)" style="font-family:'Arial';font-weight:700;font-size:20px;font-style:normal;fill:#000000;stroke:none;">Resolution</text><text transform="matrix(1,0,0,1,71.537,252.699)" style="font-family:'Arial';font-weight:700;font-size:20px;font-style:normal;fill:#000000;stroke:none;">Price</text><text transform="matrix(1,0,0,1,66.537,300.658)" style="font-family:'Arial';font-weight:700;font-size:20px;font-style:normal;fill:#000000;stroke:none;">Select</text><text transform="matrix(1,0,0,1,256.429,73.949)" style="font-family:'Arial';font-weight:400;font-size:20px;font-style:normal;fill:#000000;stroke:none;">64GB</text><text transform="matrix(1,0,0,1,264.549,118.637)" style="font-family:'Arial';font-weight:400;font-size:20px;font-style:normal;fill:#000000;stroke:none;">6.1"</text><text transform="matrix(1,0,0,1,261.438,163.324)" style="font-family:'Arial';font-weight:400;font-size:20px;font-style:normal;fill:#000000;stroke:none;">5MP</text><text transform="matrix(1,0,0,1,226.951,208.012)" style="font-family:'Arial';font-weight:400;font-size:20px;font-style:normal;fill:#000000;stroke:none;">2960 x 1440</text><text transform="matrix(1,0,0,1,259.754,252.699)" style="font-family:'Arial';font-weight:400;font-size:20px;font-style:normal;fill:#000000;stroke:none;">$899</text><text transform="matrix(1,0,0,1,243.646,300.658)" style="font-family:'Arial';font-weight:400;font-size:20px;font-style:normal;fill:#000000;stroke:none;">This one</text><path d="M 217.914 270 L 354.086 270 C 356.246 270 358 271.754 358 273.914 L 358 317.086 C 358 319.246 356.246 321 354.086 321 L 217.914 321 C 215.754 321 214 319.246 214 317.086 L 214 273.914 C 214 271.754 215.754 270 217.914 270 Z" style="fill:none;stroke:#191919;stroke-width:1;stroke-linecap:square;stroke-miterlimit:2;"/><path d="M 405.914 270 L 542.086 270 C 544.246 270 546 271.754 546 273.914 L 546 317.086 C 546 319.246 544.246 321 542.086 321 L 405.914 321 C 403.754 321 402 319.246 402 317.086 L 402 273.914 C 402 271.754 403.754 270 405.914 270 Z" style="fill:none;stroke:#191919;stroke-width:1;stroke-linecap:square;stroke-miterlimit:2;"/><path d="M 588.914 270 L 725.086 270 C 727.246 270 729 271.754 729 273.914 L 729 317.086 C 729 319.246 727.246 321 725.086 321 L 588.914 321 C 586.754 321 585 319.246 585 317.086 L 585 273.914 C 585 271.754 586.754 270 588.914 270 Z" style="fill:none;stroke:#191919;stroke-width:1;stroke-linecap:square;stroke-miterlimit:2;"/></g></svg>