<?xml version="1.0" encoding="UTF-8" standalone="no"?><!-- Generator: Gravit.io --><svg xmlns="http://www.w3.org/2000/svg" xmlns:xlink="http://www.w3.org/1999/xlink" style="isolation:isolate" viewBox="0 0 750 370" width="750pt" height="370pt"><defs><clipPath id="_clipPath_66Xww8o9bCcvi2q2IMmhiaw3SP2sCJvv"><rect width="750" height="370"/></clipPath></defs><g clip-path="url(#_clipPath_66Xww8o9bCcvi2q2IMmhiaw3SP2sCJvv)"><text transform="matrix(1,0,0,1,616.641,54.039)" style="font-family:'Arial';font-weight:400;font-size:24px;font-style:normal;fill:#000000;stroke:none;">256GB</text><text transform="matrix(1,0,0,1,633.059,107.664)" style="font-family:'Arial';font-weight:400;font-size:24px;font-style:normal;fill:#000000;stroke:none;">5.5"</text><text transform="matrix(1,0,0,1,622.652,161.289)" style="font-family:'Arial';font-weight:400;font-size:24px;font-style:normal;fill:#000000;stroke:none;">16MP</text><text transform="matrix(1,0,0,1,594.615,214.914)" style="font-family:'Arial';font-weight:400;font-size:24px;font-style:normal;fill:#000000;stroke:none;">1280 x 720</text><text transform="matrix(1,0,0,1,620.631,268.539)" style="font-family:'Arial';font-weight:400;font-size:24px;font-style:normal;fill:#000000;stroke:none;">$1449</text><text transform="matrix(1,0,0,1,607.975,326.09)" style="font-family:'Arial';font-weight:400;font-size:24px;font-style:normal;fill:#000000;stroke:none;">This one</text><text transform="matrix(1,0,0,1,430.641,54.039)" style="font-family:'Arial';font-weight:400;font-size:24px;font-style:normal;fill:#000000;stroke:none;">128GB</text><text transform="matrix(1,0,0,1,447.059,107.664)" style="font-family:'Arial';font-weight:400;font-size:24px;font-style:normal;fill:#000000;stroke:none;">5.5"</text><text transform="matrix(1,0,0,1,436.652,161.289)" style="font-family:'Arial';font-weight:400;font-size:24px;font-style:normal;fill:#000000;stroke:none;">48MP</text><text transform="matrix(1,0,0,1,401.941,214.914)" style="font-family:'Arial';font-weight:400;font-size:24px;font-style:normal;fill:#000000;stroke:none;">2280 x 1080</text><text transform="matrix(1,0,0,1,441.305,268.539)" style="font-family:'Arial';font-weight:400;font-size:24px;font-style:normal;fill:#000000;stroke:none;">$499</text><text transform="matrix(1,0,0,1,421.975,326.09)" style="font-family:'Arial';font-weight:400;font-size:24px;font-style:normal;fill:#000000;stroke:none;">This one</text><text transform="matrix(1,0,0,1,49.986,54.039)" style="font-family:'Arial';font-weight:700;font-size:24px;font-style:normal;fill:#000000;stroke:none;">Memory</text><text transform="matrix(1,0,0,1,28.629,107.664)" style="font-family:'Arial';font-weight:700;font-size:24px;font-style:normal;fill:#000000;stroke:none;">Screen Size</text><text transform="matrix(1,0,0,1,51.973,161.289)" style="font-family:'Arial';font-weight:700;font-size:24px;font-style:normal;fill:#000000;stroke:none;">Camera</text><text transform="matrix(1,0,0,1,34.002,214.914)" style="font-family:'Arial';font-weight:700;font-size:24px;font-style:normal;fill:#000000;stroke:none;">Resolution</text><text transform="matrix(1,0,0,1,66.645,268.539)" style="font-family:'Arial';font-weight:700;font-size:24px;font-style:normal;fill:#000000;stroke:none;">Price</text><text transform="matrix(1,0,0,1,60.645,326.09)" style="font-family:'Arial';font-weight:700;font-size:24px;font-style:normal;fill:#000000;stroke:none;">Select</text><text transform="matrix(1,0,0,1,251.314,54.039)" style="font-family:'Arial';font-weight:400;font-size:24px;font-style:normal;fill:#000000;stroke:none;">64GB</text><text transform="matrix(1,0,0,1,261.059,107.664)" style="font-family:'Arial';font-weight:400;font-size:24px;font-style:normal;fill:#000000;stroke:none;">6.1"</text><text transform="matrix(1,0,0,1,257.326,161.289)" style="font-family:'Arial';font-weight:400;font-size:24px;font-style:normal;fill:#000000;stroke:none;">5MP</text><text transform="matrix(1,0,0,1,215.941,214.914)" style="font-family:'Arial';font-weight:400;font-size:24px;font-style:normal;fill:#000000;stroke:none;">2960 x 1440</text><text transform="matrix(1,0,0,1,255.305,268.539)" style="font-family:'Arial';font-weight:400;font-size:24px;font-style:normal;fill:#000000;stroke:none;">$899</text><text transform="matrix(1,0,0,1,235.975,326.09)" style="font-family:'Arial';font-weight:400;font-size:24px;font-style:normal;fill:#000000;stroke:none;">This one</text><path d="M 217.914 297 L 354.086 297 C 356.246 297 358 298.754 358 300.914 L 358 344.086 C 358 346.246 356.246 348 354.086 348 L 217.914 348 C 215.754 348 214 346.246 214 344.086 L 214 300.914 C 214 298.754 215.754 297 217.914 297 Z" style="fill:none;stroke:#191919;stroke-width:1;stroke-linecap:square;stroke-miterlimit:2;"/><path d="M 405.914 297 L 542.086 297 C 544.246 297 546 298.754 546 300.914 L 546 344.086 C 546 346.246 544.246 348 542.086 348 L 405.914 348 C 403.754 348 402 346.246 402 344.086 L 402 300.914 C 402 298.754 403.754 297 405.914 297 Z" style="fill:none;stroke:#191919;stroke-width:1;stroke-linecap:square;stroke-miterlimit:2;"/><path d="M 588.914 297 L 725.086 297 C 727.246 297 729 298.754 729 300.914 L 729 344.086 C 729 346.246 727.246 348 725.086 348 L 588.914 348 C 586.754 348 585 346.246 585 344.086 L 585 300.914 C 585 298.754 586.754 297 588.914 297 Z" style="fill:none;stroke:#191919;stroke-width:1;stroke-linecap:square;stroke-miterlimit:2;"/></g></svg>